HIERARCHY
ROOT Hips
{
	OFFSET -29.421501 87.739624 36.273705
	CHANNELS 6 Xposition Yposition Zposition Zrotation Yrotation Xrotation 
	JOINT Spine
	{
		OFFSET -0.000000 8.814246 -2.080107
		CHANNELS 3 Zrotation Yrotation Xrotation
		JOINT Spine1
		{
			OFFSET -0.000000 8.844141 0.000000
			CHANNELS 3 Zrotation Yrotation Xrotation
			JOINT Spine2
			{
				OFFSET 0.000000 11.682268 0.000000
				CHANNELS 3 Zrotation Yrotation Xrotation
				JOINT Spine3
				{
					OFFSET 0.000000 11.746700 0.000000
					CHANNELS 3 Zrotation Yrotation Xrotation
					JOINT Neck
					{
						OFFSET -0.000000 17.658264 -0.000000
						CHANNELS 3 Zrotation Yrotation Xrotation
						JOINT Neck1
						{
							OFFSET 0.000000 5.101515 0.000000
							CHANNELS 3 Zrotation Yrotation Xrotation
							JOINT Head
							{
								OFFSET 0.000000 5.101515 0.000000
								CHANNELS 3 Zrotation Yrotation Xrotation
								JOINT HeadEnd
								{
									OFFSET 0.000000 11.655085 -0.000000
									CHANNELS 3 Zrotation Yrotation Xrotation
									End Site
									{
										OFFSET 0.000000 0.000000 0.000000
									}
								}
							}
						}
					}
					JOINT RightShoulder
					{
						OFFSET -2.625389 11.175210 -0.000000
						CHANNELS 3 Zrotation Yrotation Xrotation
						JOINT RightArm
						{
							OFFSET -0.000000 10.434715 -0.000000
							CHANNELS 3 Zrotation Yrotation Xrotation
							JOINT RightForeArm
							{
								OFFSET 0.000000 29.628420 0.000000
								CHANNELS 3 Zrotation Yrotation Xrotation
								JOINT RightHand
								{
									OFFSET -0.000000 22.857611 -0.000000
									CHANNELS 3 Zrotation Yrotation Xrotation
									JOINT RightHandThumb1
									{
										OFFSET -2.867323 3.959563 2.944291
										CHANNELS 3 Zrotation Yrotation Xrotation
										JOINT RightHandThumb2
										{
											OFFSET 0.000000 3.350399 0.000000
											CHANNELS 3 Zrotation Yrotation Xrotation
											JOINT RightHandThumb3
											{
												OFFSET 0.000000 3.756509 -0.000000
												CHANNELS 3 Zrotation Yrotation Xrotation
												JOINT RightHandThumb4
												{
													OFFSET 0.000000 3.147345 0.000000
													CHANNELS 3 Zrotation Yrotation Xrotation
													End Site
													{
														OFFSET 0.000000 0.000000 0.000000
													}
												}
											}
										}
									}
									JOINT RightHandIndex1
									{
										OFFSET -0.086752 10.030893 2.345280
										CHANNELS 3 Zrotation Yrotation Xrotation
										JOINT RightHandIndex2
										{
											OFFSET 0.000000 4.061090 0.000000
											CHANNELS 3 Zrotation Yrotation Xrotation
											JOINT RightHandIndex3
											{
												OFFSET 0.000000 3.248873 0.000000
												CHANNELS 3 Zrotation Yrotation Xrotation
												JOINT RightHandIndex4
												{
													OFFSET 0.000000 2.639709 0.000000
													CHANNELS 3 Zrotation Yrotation Xrotation
													End Site
													{
														OFFSET 0.000000 0.000000 0.000000
													}
												}
											}
										}
									}
									JOINT RightHandMiddle1
									{
										OFFSET 0.104102 9.502952 0.006768
										CHANNELS 3 Zrotation Yrotation Xrotation
										JOINT RightHandMiddle2
										{
											OFFSET 0.000000 4.568727 0.000000
											CHANNELS 3 Zrotation Yrotation Xrotation
											JOINT RightHandMiddle3
											{
												OFFSET -0.000000 3.654981 -0.000000
												CHANNELS 3 Zrotation Yrotation Xrotation
												JOINT RightHandMiddle4
												{
													OFFSET 0.000000 2.741236 0.000000
													CHANNELS 3 Zrotation Yrotation Xrotation
													End Site
													{
														OFFSET 0.000000 0.000000 0.000000
													}
												}
											}
										}
									}
									JOINT RightHandRing1
									{
										OFFSET 0.086752 8.921708 -2.267442
										CHANNELS 3 Zrotation Yrotation Xrotation
										JOINT RightHandRing2
										{
											OFFSET -0.000000 4.061090 0.000000
											CHANNELS 3 Zrotation Yrotation Xrotation
											JOINT RightHandRing3
											{
												OFFSET -0.000000 3.654981 -0.000000
												CHANNELS 3 Zrotation Yrotation Xrotation
												JOINT RightHandRing4
												{
													OFFSET 0.000000 2.741236 0.000000
													CHANNELS 3 Zrotation Yrotation Xrotation
													End Site
													{
														OFFSET 0.000000 0.000000 0.000000
													}
												}
											}
										}
									}
									JOINT RightHandPinky1
									{
										OFFSET -0.173504 7.976997 -4.467199
										CHANNELS 3 Zrotation Yrotation Xrotation
										JOINT RightHandPinky2
										{
											OFFSET 0.000000 3.350399 0.000000
											CHANNELS 3 Zrotation Yrotation Xrotation
											JOINT RightHandPinky3
											{
												OFFSET 0.000000 2.842763 0.000000
												CHANNELS 3 Zrotation Yrotation Xrotation
												JOINT RightHandPinky4
												{
													OFFSET 0.000000 2.639709 0.000000
													CHANNELS 3 Zrotation Yrotation Xrotation
													End Site
													{
														OFFSET 0.000000 0.000000 0.000000
													}
												}
											}
										}
									}
									JOINT RightForeArmEnd
									{
										OFFSET 0.000000 0.000000 0.000000
										CHANNELS 3 Zrotation Yrotation Xrotation
										End Site
										{
											OFFSET 0.000000 0.000000 0.000000
										}
									}
								}
								JOINT RightArmEnd
								{
									OFFSET 0.000000 0.000000 0.000000
									CHANNELS 3 Zrotation Yrotation Xrotation
									End Site
									{
										OFFSET 0.000000 0.000000 0.000000
									}
								}
							}
						}
					}
					JOINT LeftShoulder
					{
						OFFSET 2.625389 11.175210 -0.000000
						CHANNELS 3 Zrotation Yrotation Xrotation
						JOINT LeftArm
						{
							OFFSET 0.000000 10.813635 0.000000
							CHANNELS 3 Zrotation Yrotation Xrotation
							JOINT LeftForeArm
							{
								OFFSET 0.000000 28.724781 -0.000000
								CHANNELS 3 Zrotation Yrotation Xrotation
								JOINT LeftHand
								{
									OFFSET 0.644384 25.716167 -0.328871
									CHANNELS 3 Zrotation Yrotation Xrotation
									JOINT LeftHandThumb1
									{
										OFFSET 2.867323 3.959563 2.944291
										CHANNELS 3 Zrotation Yrotation Xrotation
										JOINT LeftHandThumb2
										{
											OFFSET -0.000000 3.350399 -0.000000
											CHANNELS 3 Zrotation Yrotation Xrotation
											JOINT LeftHandThumb3
											{
												OFFSET 0.000000 3.756509 -0.000000
												CHANNELS 3 Zrotation Yrotation Xrotation
												JOINT LeftHandThumb4
												{
													OFFSET 0.000000 3.100000 -0.000000
													CHANNELS 3 Zrotation Yrotation Xrotation
													End Site
													{
														OFFSET 0.000000 0.000000 0.000000
													}
												}
											}
										}
									}
									JOINT LeftHandIndex1
									{
										OFFSET 0.086752 10.030893 2.345280
										CHANNELS 3 Zrotation Yrotation Xrotation
										JOINT LeftHandIndex2
										{
											OFFSET -0.000000 4.061090 0.000000
											CHANNELS 3 Zrotation Yrotation Xrotation
											JOINT LeftHandIndex3
											{
												OFFSET -0.000000 3.248873 0.000000
												CHANNELS 3 Zrotation Yrotation Xrotation
												JOINT LeftHandIndex4
												{
													OFFSET 0.000000 2.639709 -0.000000
													CHANNELS 3 Zrotation Yrotation Xrotation
													End Site
													{
														OFFSET 0.000000 0.000000 0.000000
													}
												}
											}
										}
									}
									JOINT LeftHandMiddle1
									{
										OFFSET -0.104102 9.502952 0.006768
										CHANNELS 3 Zrotation Yrotation Xrotation
										JOINT LeftHandMiddle2
										{
											OFFSET -0.000000 4.568727 0.000000
											CHANNELS 3 Zrotation Yrotation Xrotation
											JOINT LeftHandMiddle3
											{
												OFFSET 0.000000 3.654981 -0.000000
												CHANNELS 3 Zrotation Yrotation Xrotation
												JOINT LeftHandMiddle4
												{
													OFFSET -0.000000 2.741236 0.000000
													CHANNELS 3 Zrotation Yrotation Xrotation
													End Site
													{
														OFFSET 0.000000 0.000000 0.000000
													}
												}
											}
										}
									}
									JOINT LeftHandRing1
									{
										OFFSET -0.086752 8.921708 -2.267442
										CHANNELS 3 Zrotation Yrotation Xrotation
										JOINT LeftHandRing2
										{
											OFFSET -0.000000 4.061090 0.000000
											CHANNELS 3 Zrotation Yrotation Xrotation
											JOINT LeftHandRing3
											{
												OFFSET 0.000000 3.654981 -0.000000
												CHANNELS 3 Zrotation Yrotation Xrotation
												JOINT LeftHandRing4
												{
													OFFSET 0.000000 2.741236 -0.000000
													CHANNELS 3 Zrotation Yrotation Xrotation
													End Site
													{
														OFFSET 0.000000 0.000000 0.000000
													}
												}
											}
										}
									}
									JOINT LeftHandPinky1
									{
										OFFSET 0.173504 7.976997 -4.467199
										CHANNELS 3 Zrotation Yrotation Xrotation
										JOINT LeftHandPinky2
										{
											OFFSET 0.000000 3.350399 0.000000
											CHANNELS 3 Zrotation Yrotation Xrotation
											JOINT LeftHandPinky3
											{
												OFFSET -0.000000 2.842763 0.000000
												CHANNELS 3 Zrotation Yrotation Xrotation
												JOINT LeftHandPinky4
												{
													OFFSET 0.000000 2.639709 -0.000000
													CHANNELS 3 Zrotation Yrotation Xrotation
													End Site
													{
														OFFSET 0.000000 0.000000 0.000000
													}
												}
											}
										}
									}
									JOINT LeftForeArmEnd
									{
										OFFSET 0.000000 0.000000 0.000000
										CHANNELS 3 Zrotation Yrotation Xrotation
										End Site
										{
											OFFSET 0.000000 0.000000 0.000000
										}
									}
								}
								JOINT LeftArmEnd
								{
									OFFSET 0.000000 0.000000 0.000000
									CHANNELS 3 Zrotation Yrotation Xrotation
									End Site
									{
										OFFSET 0.000000 0.000000 0.000000
									}
								}
							}
						}
					}
				}
			}
		}
	}
	JOINT RightUpLeg
	{
		OFFSET -11.289943 0.000000 -0.000000
		CHANNELS 3 Zrotation Yrotation Xrotation
		JOINT RightLeg
		{
			OFFSET 0.000000 -38.200325 0.000000
			CHANNELS 3 Zrotation Yrotation Xrotation
			JOINT RightFoot
			{
				OFFSET -0.000000 -39.900856 0.000000
				CHANNELS 3 Zrotation Yrotation Xrotation
				JOINT RightToeBase
				{
					OFFSET -0.000000 -0.000000 15.261641
					CHANNELS 3 Zrotation Yrotation Xrotation
					JOINT RightToeBaseEnd
					{
						OFFSET -0.000000 0.000000 7.370709
						CHANNELS 3 Zrotation Yrotation Xrotation
						End Site
						{
							OFFSET 0.000000 0.000000 0.000000
						}
					}
				}
				JOINT RightLegEnd
				{
					OFFSET 0.000000 0.000000 0.000000
					CHANNELS 3 Zrotation Yrotation Xrotation
					End Site
					{
						OFFSET 0.000000 0.000000 0.000000
					}
				}
			}
			JOINT RightUpLegEnd
			{
				OFFSET 0.000000 0.000000 0.000000
				CHANNELS 3 Zrotation Yrotation Xrotation
				End Site
				{
					OFFSET 0.000000 0.000000 0.000000
				}
			}
		}
	}
	JOINT LeftUpLeg
	{
		OFFSET 11.315661 0.000000 -0.000000
		CHANNELS 3 Zrotation Yrotation Xrotation
		JOINT LeftLeg
		{
			OFFSET -0.000000 -38.200325 0.000000
			CHANNELS 3 Zrotation Yrotation Xrotation
			JOINT LeftFoot
			{
				OFFSET 0.000000 -39.900856 0.000000
				CHANNELS 3 Zrotation Yrotation Xrotation
				JOINT LeftToeBase
				{
					OFFSET -0.000000 -0.000000 15.261641
					CHANNELS 3 Zrotation Yrotation Xrotation
					JOINT LeftToeBaseEnd
					{
						OFFSET 0.000000 -0.000000 7.539996
						CHANNELS 3 Zrotation Yrotation Xrotation
						End Site
						{
							OFFSET 0.000000 0.000000 0.000000
						}
					}
				}
				JOINT LeftLegEnd
				{
					OFFSET 0.000000 0.000000 0.000000
					CHANNELS 3 Zrotation Yrotation Xrotation
					End Site
					{
						OFFSET 0.000000 0.000000 0.000000
					}
				}
			}
			JOINT LeftUpLegEnd
			{
				OFFSET 0.000000 0.000000 0.000000
				CHANNELS 3 Zrotation Yrotation Xrotation
				End Site
				{
					OFFSET 0.000000 0.000000 0.000000
				}
			}
		}
	}
}
MOTION
Frames: 5
Frame Time: 0.016667
0.000000 87.003761 0.000000 0.713686 0.037629 -6.019230 4.405447 -2.162296 10.487217 -13.983444 1.598398 -18.982090 13.086051 -8.222228 20.326515 -3.619151 0.013742 -2.002473 6.521995 0.562002 16.138828 -3.140681 0.535653 -4.277336 -0.089895 3.478411 -24.317408 -0.000000 0.000000 -0.000000 98.436287 -0.478833 2.974068 62.512627 -34.586628 -2.829510 2.176933 18.055931 35.805023 3.763496 12.907763 -12.025794 10.338415 -1.814722 40.003895 -0.000000 -0.000000 -25.200001 0.000000 -0.000000 -17.500000 0.000000 0.000000 -0.000000 14.921967 0.000000 -9.541069 10.445376 0.000000 -0.000000 10.445376 -0.000000 0.000000 -0.000000 0.000000 -0.000000 15.194168 0.000000 -11.345302 10.635918 -0.000000 -0.000000 10.635918 -0.000000 -0.000000 -0.000000 -0.000000 -0.000000 16.188747 0.000000 -12.153975 11.332124 -0.000000 -0.000000 11.332124 -0.000000 0.000000 0.000000 -0.000000 -0.000000 16.290936 0.000000 -14.613061 11.403655 0.000000 0.000000 11.403655 0.000000 0.000000 0.000000 -0.000000 0.000000 0.000000 -0.000000 -0.000000 0.000000 0.000000 0.000000 -96.056137 0.357195 2.565883 -61.440903 37.038055 -5.249651 -1.594598 -5.909155 50.172882 -1.450542 -20.013807 -17.112991 -8.247545 1.593391 40.952408 0.000000 -0.000000 -20.160000 0.000000 -0.000000 -14.000000 0.000000 0.000000 -0.000000 -9.356559 -0.000000 -16.536715 -6.549591 -0.000000 0.000000 -6.549591 0.000000 0.000000 -0.000000 0.000000 0.000000 -10.820176 -0.000000 -16.761688 -7.574123 0.000000 -0.000000 -7.574123 0.000000 0.000000 -0.000000 -0.000000 -0.000000 -14.423803 -0.000000 -14.445740 -10.096663 -0.000000 -0.000000 -10.096663 -0.000000 -0.000000 0.000000 0.000000 -0.000000 -16.870073 -0.000000 -13.042590 -11.809052 0.000000 -0.000000 -11.809052 0.000000 -0.000000 0.000000 0.000000 0.000000 -0.000000 -0.000000 -0.000000 -0.000000 0.000000 0.000000 -5.679001 -4.253934 7.790009 -0.220444 -1.065624 11.675192 -0.317584 -9.664182 14.265551 -0.584030 -0.772917 -28.573238 0.000000 0.000000 0.000000 -0.000000 -0.000000 -0.000000 -0.000000 -0.000000 0.000000 4.489769 5.251474 5.177283 0.202330 0.883355 12.890409 0.539249 4.156125 15.146762 0.185359 0.239648 -28.353588 0.000000 0.000000 0.000000 0.000000 0.000000 0.000000 0.000000 0.000000 0.000000 
0.281999 87.015198 0.072575 0.691112 -0.315555 -5.934012 4.363866 -2.116839 10.444899 -13.838772 1.612733 -19.103598 13.103261 -8.193542 20.371822 -3.652030 0.069126 -1.971647 6.398149 0.676119 16.178513 -3.107841 0.587696 -4.269280 -0.087233 3.486890 -24.319969 0.000000 0.000000 0.000000 98.388008 -0.476807 2.981307 62.914982 -34.583096 -2.916835 2.099838 17.999237 35.768021 3.667724 12.749625 -12.087827 10.338415 -1.814722 40.003895 -0.000000 -0.000000 -25.200001 -0.000000 0.000000 -17.500000 -0.000000 0.000000 0.000000 14.730107 -0.000000 -9.512043 10.311075 -0.000000 -0.000000 10.311075 -0.000000 -0.000000 0.000000 -0.000000 -0.000000 14.897378 -0.000000 -11.403565 10.428164 -0.000000 0.000000 10.428164 0.000000 -0.000000 0.000000 -0.000000 0.000000 15.617115 -0.000000 -12.375796 10.931981 -0.000000 -0.000000 10.931981 0.000000 -0.000000 0.000000 0.000000 0.000000 15.448853 -0.000000 -14.964467 10.814197 0.000000 -0.000000 10.814197 -0.000000 0.000000 -0.000000 -0.000000 -0.000000 0.000000 -0.000000 -0.000000 0.000000 -0.000000 0.000000 -96.098457 0.346921 2.447837 -61.206360 37.083328 -5.236788 -1.614799 -5.972739 50.178482 -1.271102 -20.245872 -17.232841 -8.247545 1.593391 40.952408 0.000000 0.000000 -20.160000 -0.000000 0.000000 -14.000000 0.000000 0.000000 0.000000 -9.292442 -0.000000 -16.523554 -6.504709 0.000000 -0.000000 -6.504709 0.000000 0.000000 0.000000 0.000000 -0.000000 -10.732949 0.000000 -16.761137 -7.513064 -0.000000 0.000000 -7.513064 0.000000 -0.000000 -0.000000 0.000000 0.000000 -14.278202 -0.000000 -14.473142 -9.994741 -0.000000 -0.000000 -9.994741 0.000000 0.000000 0.000000 -0.000000 -0.000000 -16.673567 -0.000000 -13.094980 -11.671496 0.000000 0.000000 -11.671496 0.000000 0.000000 -0.000000 0.000000 0.000000 -0.000000 -0.000000 -0.000000 -0.000000 -0.000000 0.000000 -5.955672 -4.627519 7.568369 -0.220941 -1.050815 11.852661 -0.176364 -9.096648 14.386397 -0.593179 -0.797680 -28.569818 0.000000 -0.000000 0.000000 -0.000000 -0.000000 -0.000000 -0.000000 -0.000000 0.000000 4.346404 5.606999 5.270591 0.196345 0.863267 12.806367 0.720931 4.224852 15.041728 0.165907 0.240432 -28.320850 0.000000 0.000000 0.000000 0.000000 0.000000 0.000000 0.000000 -0.000000 -0.000000 
0.540375 87.032333 0.140124 0.615677 -0.620572 -5.821095 4.333797 -2.069230 10.446472 -13.504582 1.598964 -19.378553 12.919738 -8.095491 20.539207 -3.647563 0.118043 -1.976149 6.265435 0.766952 16.244608 -3.086494 0.607580 -4.256700 -0.083956 3.489810 -24.340437 -0.000000 0.000000 0.000000 98.384270 -0.477374 2.989799 63.305573 -34.556896 -3.051271 2.024977 17.928469 35.742916 3.467895 12.050516 -12.239190 10.338415 -1.814722 40.003895 0.000000 0.000000 -25.200001 -0.000000 -0.000000 -17.500000 0.000000 -0.000000 -0.000000 14.708617 -0.000000 -9.259683 10.296032 -0.000000 -0.000000 10.296032 -0.000000 -0.000000 -0.000000 -0.000000 -0.000000 14.736873 0.000000 -11.284760 10.315811 0.000000 -0.000000 10.315811 -0.000000 0.000000 0.000000 0.000000 0.000000 15.098726 0.000000 -12.481345 10.569108 -0.000000 0.000000 10.569108 0.000000 -0.000000 0.000000 0.000000 0.000000 14.568725 -0.000000 -15.248473 10.198108 -0.000000 0.000000 10.198108 -0.000000 -0.000000 -0.000000 0.000000 0.000000 0.000000 -0.000000 -0.000000 0.000000 -0.000000 0.000000 -96.126724 0.347509 2.437882 -60.986176 37.000763 -5.292093 -1.627096 -5.990142 50.213322 -1.165608 -20.305767 -17.382689 -8.247545 1.593391 40.952408 -0.000000 0.000000 -20.160000 0.000000 -0.000000 -14.000000 0.000000 0.000000 0.000000 -9.289778 -0.000000 -16.455961 -6.502844 -0.000000 0.000000 -6.502844 -0.000000 0.000000 0.000000 0.000000 -0.000000 -10.709751 -0.000000 -16.698851 -7.496826 0.000000 -0.000000 -7.496826 -0.000000 0.000000 0.000000 0.000000 -0.000000 -14.201055 -0.000000 -14.419674 -9.940738 0.000000 0.000000 -9.940738 0.000000 -0.000000 0.000000 0.000000 -0.000000 -16.544008 -0.000000 -13.052349 -11.580806 -0.000000 0.000000 -11.580806 0.000000 0.000000 0.000000 0.000000 -0.000000 -0.000000 0.000000 -0.000000 0.000000 -0.000000 -0.000000 -6.163872 -5.153535 7.303408 -0.221317 -1.031608 12.062838 -0.060303 -8.551043 14.562765 -0.599074 -0.831929 -28.595030 -0.000000 -0.000000 0.000000 -0.000000 -0.000000 -0.000000 -0.000000 -0.000000 0.000000 4.261961 5.904959 5.314085 0.190898 0.844692 12.735182 0.886543 4.293458 14.933337 0.149905 0.242871 -28.270885 0.000000 0.000000 0.000000 0.000000 0.000000 0.000000 0.000000 0.000000 0.000000 
0.768965 87.059952 0.204597 0.459987 -0.856336 -5.680141 4.287526 -2.023304 10.550955 -12.967765 1.535364 -19.941088 12.582385 -7.978646 20.927940 -3.604399 0.155199 -2.032405 6.117595 0.852428 16.317265 -3.078074 0.605996 -4.242149 -0.080510 3.490919 -24.366747 -0.000000 0.000000 -0.000000 98.367630 -0.482394 3.032906 63.664795 -34.627197 -3.194677 1.970257 17.880657 35.705257 3.168719 11.643890 -12.351534 10.338415 -1.814722 40.003895 -0.000000 -0.000000 -25.200001 0.000000 -0.000000 -17.500000 0.000000 0.000000 0.000000 14.622190 0.000000 -9.129468 10.235533 -0.000000 0.000000 10.235533 0.000000 0.000000 0.000000 0.000000 -0.000000 14.522333 0.000000 -11.281408 10.165633 0.000000 0.000000 10.165633 0.000000 -0.000000 -0.000000 0.000000 0.000000 14.554597 0.000000 -12.695638 10.188218 -0.000000 0.000000 10.188218 0.000000 -0.000000 -0.000000 -0.000000 -0.000000 13.690250 0.000000 -15.645377 9.583176 -0.000000 0.000000 9.583176 0.000000 -0.000000 0.000000 -0.000000 0.000000 0.000000 -0.000000 -0.000000 0.000000 -0.000000 0.000000 -96.149460 0.351967 2.466201 -60.805195 36.977348 -5.379755 -1.648764 -6.146166 50.246658 -1.181690 -20.155714 -17.481726 -8.247545 1.593391 40.952408 -0.000000 -0.000000 -20.160000 0.000000 -0.000000 -14.000000 0.000000 0.000000 0.000000 -9.331535 -0.000000 -16.374580 -6.532074 0.000000 0.000000 -6.532074 0.000000 0.000000 -0.000000 -0.000000 0.000000 -10.749659 -0.000000 -16.609646 -7.524761 -0.000000 0.000000 -7.524761 0.000000 0.000000 0.000000 0.000000 -0.000000 -14.232594 -0.000000 -14.304125 -9.962816 0.000000 0.000000 -9.962816 0.000000 0.000000 0.000000 0.000000 0.000000 -16.561962 -0.000000 -12.914059 -11.593373 -0.000000 -0.000000 -11.593373 -0.000000 0.000000 0.000000 0.000000 -0.000000 -0.000000 -0.000000 -0.000000 -0.000000 -0.000000 -0.000000 -6.257807 -5.801994 7.001433 -0.221581 -1.011929 12.289108 0.032080 -8.100718 14.837529 -0.596858 -0.875939 -28.709379 0.000000 0.000000 0.000000 -0.000000 -0.000000 -0.000000 -0.000000 -0.000000 0.000000 4.262117 6.096706 5.305626 0.186853 0.829074 12.676577 1.029576 4.384378 14.821372 0.139366 0.247200 -28.201471 0.000000 -0.000000 0.000000 0.000000 0.000000 -0.000000 0.000000 0.000000 0.000000 
0.972510 87.086021 0.249490 0.287005 -1.039827 -5.430643 4.096649 -1.928844 10.654910 -12.105050 1.423426 -20.681335 12.047885 -7.797857 21.439793 -3.513774 0.182601 -2.116058 5.970283 0.931597 16.377888 -3.087860 0.590909 -4.228037 -0.077148 3.490601 -24.383032 -0.000000 0.000000 -0.000000 98.352615 -0.490041 3.093155 63.971077 -34.722374 -3.356756 1.901794 17.717278 35.703159 2.927598 11.463427 -12.462672 10.338415 -1.814722 40.003895 -0.000000 -0.000000 -25.200001 0.000000 0.000000 -17.500000 0.000000 0.000000 0.000000 14.269678 0.000000 -9.072929 9.988775 -0.000000 -0.000000 9.988775 -0.000000 -0.000000 0.000000 0.000000 0.000000 14.100984 0.000000 -11.324935 9.870688 0.000000 0.000000 9.870688 0.000000 -0.000000 -0.000000 -0.000000 0.000000 13.938839 0.000000 -12.904574 9.757187 0.000000 -0.000000 9.757187 -0.000000 0.000000 -0.000000 0.000000 -0.000000 12.880470 0.000000 -15.987005 9.016329 -0.000000 -0.000000 9.016329 0.000000 -0.000000 0.000000 0.000000 0.000000 0.000000 -0.000000 -0.000000 0.000000 0.000000 0.000000 -96.142448 0.354082 2.484951 -60.674381 36.918419 -5.460223 -1.667699 -6.306623 50.259109 -1.239698 -19.884602 -17.533466 -8.247545 1.593391 40.952408 0.000000 0.000000 -20.160000 0.000000 -0.000000 -14.000000 0.000000 0.000000 -0.000000 -9.466924 0.000000 -16.294203 -6.626846 -0.000000 -0.000000 -6.626846 0.000000 0.000000 -0.000000 -0.000000 0.000000 -10.886230 -0.000000 -16.519192 -7.620360 -0.000000 -0.000000 -7.620360 -0.000000 0.000000 -0.000000 0.000000 0.000000 -14.373935 -0.000000 -14.172076 -10.061754 -0.000000 -0.000000 -10.061754 0.000000 0.000000 0.000000 -0.000000 -0.000000 -16.699791 0.000000 -12.738184 -11.689854 -0.000000 0.000000 -11.689854 0.000000 -0.000000 -0.000000 0.000000 0.000000 -0.000000 -0.000000 -0.000000 -0.000000 -0.000000 -0.000000 -6.261679 -6.433648 6.583770 -0.221744 -0.991487 12.520943 0.118271 -7.879815 15.118969 -0.600828 -0.921224 -28.799746 0.000000 0.000000 0.000000 -0.000000 -0.000000 -0.000000 -0.000000 -0.000000 -0.000000 4.267715 6.213264 5.149420 0.183445 0.817692 12.644886 1.154740 4.497575 14.704858 0.134793 0.251719 -28.111935 0.000000 -0.000000 0.000000 0.000000 0.000000 -0.000000 0.000000 0.000000 0.000000 
